<svg xmlns="http://www.w3.org/2000/svg" width="610.16" height="110.288" viewBox="0 0 610.16 110.288">
  <g id="Group_91" data-name="Group 91" transform="translate(4764.001 6814)">
    <g id="Group_12" data-name="Group 12" transform="translate(-4826.771 -7414)">
      <g id="Group_1" data-name="Group 1" transform="translate(62.77 600)">
        <rect id="Rectangle_4" data-name="Rectangle 4" width="31.194" height="31.194" transform="translate(44.115 22.058) rotate(45)" fill="#b29969" opacity="0.6"/>
        <path id="Rectangle_11" data-name="Rectangle 11" d="M0,0H31.194V31.194H4a4,4,0,0,1-4-4Z" transform="translate(22.058 44.115) rotate(45)" fill="#b29969" opacity="0.8"/>
        <rect id="Rectangle_7" data-name="Rectangle 7" width="31.194" height="31.194" transform="translate(88.23 22.058) rotate(45)" fill="#b29969" opacity="0.6"/>
        <rect id="Rectangle_9" data-name="Rectangle 9" width="31.194" height="31.194" transform="translate(66.172 44.115) rotate(45)" fill="#b29969" opacity="0.8"/>
        <path id="Rectangle_13" data-name="Rectangle 13" d="M0,0H31.194V27.194a4,4,0,0,1-4,4H0Z" transform="translate(88.23 66.173) rotate(45)" fill="#b29969"/>
        <path id="Rectangle_14" data-name="Rectangle 14" d="M0,0H31.194V27.194a4,4,0,0,1-4,4H0Z" transform="translate(44.115 66.173) rotate(45)" fill="#b29969"/>
        <path id="Rectangle_15" data-name="Rectangle 15" d="M0,0H31.194V27.194a4,4,0,0,1-4,4H0Z" transform="translate(132.345 66.173) rotate(45)" fill="#b29969"/>
        <rect id="Rectangle_10" data-name="Rectangle 10" width="31.194" height="31.194" transform="translate(110.287 44.115) rotate(45)" fill="#b29969" opacity="0.8"/>
        <path id="Rectangle_12" data-name="Rectangle 12" d="M0,0H27.194a4,4,0,0,1,4,4V31.194H0Z" transform="translate(154.402 44.115) rotate(45)" fill="#b29969" opacity="0.8"/>
        <rect id="Rectangle_8" data-name="Rectangle 8" width="31.194" height="31.194" transform="translate(132.345 22.058) rotate(45)" fill="#b29969" opacity="0.6"/>
        <path id="Rectangle_5" data-name="Rectangle 5" d="M3,0H31.194V31.194H0V3A3,3,0,0,1,3,0Z" transform="translate(66.172) rotate(45)" fill="#b29969" opacity="0.4"/>
        <path id="Rectangle_6" data-name="Rectangle 6" d="M3,0H31.194V31.194H0V3A3,3,0,0,1,3,0Z" transform="translate(110.287) rotate(45)" fill="#b29969" opacity="0.4"/>
      </g>
      <path id="Path_1" data-name="Path 1" d="M31.52,1.12c10.24,0,19.2-5.04,24-12.96l-11.04-6.4c-2.4,4.32-7.28,6.88-12.96,6.88C21.6-11.36,15.2-18,15.2-28s6.4-16.64,16.32-16.64c5.68,0,10.48,2.56,12.96,6.88l11.04-6.4a27.929,27.929,0,0,0-24-12.96C14.64-57.12,2.4-44.48,2.4-28S14.64,1.12,31.52,1.12Zm49.2,0A20.966,20.966,0,0,0,101.92-20a20.966,20.966,0,0,0-21.2-21.12A20.966,20.966,0,0,0,59.52-20,20.966,20.966,0,0,0,80.72,1.12Zm0-11.68c-5.2,0-9.2-3.76-9.2-9.44s4-9.44,9.2-9.44,9.2,3.76,9.2,9.44S85.92-10.56,80.72-10.56Zm71.2-35.84V-57.92c-13.28-.8-19.44,5.92-19.44,17.12v.8h-10.4c0-4.64,2.96-6,7.44-5.6V-57.12c-13.28-.8-19.44,5.92-19.44,17.12h-5.36v11.52h5.36V0h12V-28.48h10.4V0h12V-28.48h7.44V-40h-7.44v-.8C144.48-45.44,147.44-46.8,151.92-46.4Zm13.92,31.2h28.4a23.255,23.255,0,0,0,.48-4.8c0-12.08-8.64-21.12-20.32-21.12-12.64,0-21.28,9.2-21.28,21.12S161.6,1.12,175.28,1.12c7.6,0,13.52-2.8,17.44-8.24l-9.6-5.52a10.445,10.445,0,0,1-7.68,3.04C171.04-9.6,167.36-11.04,165.84-15.2Zm-.24-8.96c1.12-4.08,4.16-6.32,8.72-6.32,3.6,0,7.2,1.68,8.48,6.32Zm46.24,8.96h28.4a23.255,23.255,0,0,0,.48-4.8c0-12.08-8.64-21.12-20.32-21.12-12.64,0-21.28,9.2-21.28,21.12S207.6,1.12,221.28,1.12c7.6,0,13.52-2.8,17.44-8.24l-9.6-5.52a10.445,10.445,0,0,1-7.68,3.04C217.04-9.6,213.36-11.04,211.84-15.2Zm-.24-8.96c1.12-4.08,4.16-6.32,8.72-6.32,3.6,0,7.2,1.68,8.48,6.32ZM290.32-56h-22.4V0h22.4c15.44,0,27.2-12.16,27.2-28S305.76-56,290.32-56Zm0,43.68h-9.6V-43.68h9.6c8.8,0,14.88,6.08,14.88,15.68S299.12-12.32,290.32-12.32ZM353.36-40v3.76c-2.64-3.04-6.56-4.88-11.92-4.88-10.48,0-19.12,9.2-19.12,21.12s8.64,21.12,19.12,21.12c5.36,0,9.28-1.84,11.92-4.88V0h12V-40Zm-9.52,29.76c-5.52,0-9.52-3.76-9.52-9.76s4-9.76,9.52-9.76S353.36-26,353.36-20,349.36-10.24,343.84-10.24ZM399.36-40l-7.52,24.48L382.96-40h-13.2L385.68-1.84c-1.76,4.88-4.4,6.64-10,6.64V16c11.2.56,18.32-4.48,22.8-17.2L412.16-40Z" transform="translate(260.771 691)" fill="#242424"/>
    </g>
  </g>
</svg>
